<svg xmlns="http://www.w3.org/2000/svg" width="24" height="24" viewBox="0 0 24 24" fill="none" stroke="currentColor" stroke-width="2" stroke-linecap="round" stroke-linejoin="round">
  <path d="M12 2C6.5 2 4 6.5 4 9c0 1.4.8 3.4 2 5.5 1.2 2.3 2 3.5 2 5.5 0 1-.5 1-.5 1h3c0 1.5.5 2 1.5 2s1.5-.5 1.5-2h3s-.5 0-.5-1c0-2 .8-3.2 2-5.5 1.2-2.1 2-4.1 2-5.5 0-2.5-2.5-7-8-7z"></path>
  <path d="M8 15.5c0 1-1 2-2 1.5-1.5-1 1-3 2-1.5z"></path>
  <path d="M16 15.5c0 1 1 2 2 1.5 1.5-1-1-3-2-1.5z"></path>
</svg>
